/app/bin/ffmpeg -hide_banner -y -y -r 6 -start_number 0 -start_number_range 1 -i /home/jcomcl/ld56/gourts/guort%04d.png -i /home/jcomcl/ld56/KritaTempPalettegen_%06d.png -lavfi scale=w=128:h=128:flags=bicubic[0:v];[0:v][1:v]paletteuse=dither=sierra2_4a:diff_mode=none -f gif -loop 0 -gifflags +transdiff /home/jcomcl/ld56/guorts shock.gif
=====================================================
Input #0, image2, from '/home/jcomcl/ld56/gourts/guort%04d.png':
  Duration: 00:00:00.12, start: 0.000000, bitrate: N/A
  Stream #0:0: Video: png, rgba(pc, gbr/unknown/unknown), 256x256 [SAR 3937:3937 DAR 1:1], 25 fps, 25 tbr, 25 tbn
Input #1, image2, from '/home/jcomcl/ld56/KritaTempPalettegen_%06d.png':
  Duration: 00:00:00.04, start: 0.000000, bitrate: N/A
  Stream #1:0: Video: png, rgba(pc, gbr/unknown/unknown), 16x16 [SAR 1:1 DAR 1:1], 25 fps, 25 tbr, 25 tbn
Stream mapping:
  Stream #0:0 (png) -> scale:default
  Stream #1:0 (png) -> paletteuse
  paletteuse:default -> Stream #0:0 (gif)
Press [q] to stop, [?] for help
Output #0, gif, to '/home/jcomcl/ld56/guorts shock.gif':
  Metadata:
    encoder         : Lavf60.16.100
  Stream #0:0: Video: gif, pal8(pc, gbr/unknown/unknown, progressive), 128x128 [SAR 1:1 DAR 1:1], q=2-31, 200 kb/s, 6 fps, 100 tbn
    Metadata:
      encoder         : Lavc60.31.102 gif
frame=    1 fps=0.0 q=-0.0 size=       0kB time=00:00:00.16 bitrate=   0.0kbits/s speed= 4.4x    [out#0/gif @ 0x5643fab409c0] video:7kB audio:0kB subtitle:0kB other streams:0kB global headers:0kB muxing overhead: 0.263296%
frame=    3 fps=0.0 q=-0.0 Lsize=       7kB time=00:00:00.33 bitrate= 182.8kbits/s speed=8.54x    
